<svg xmlns="http://www.w3.org/2000/svg" width="280" height="360" viewBox="0 0 280 360" role="img" aria-labelledby="title desc">
  <title id="title">From Embodied AI to Cobodied AI cover</title>
  <desc id="desc">Abstract paper cover for cobodied AI.</desc>
  <rect width="280" height="360" fill="#f7fafc"/>
  <rect x="24" y="28" width="232" height="304" rx="10" fill="#ffffff" stroke="#cfd8e3"/>
  <path d="M52 246c38-54 64-74 98-62 36 12 46 54 78 20 18-19 23-49 28-82" fill="none" stroke="#0f766e" stroke-width="8" stroke-linecap="round"/>
  <circle cx="76" cy="226" r="20" fill="#14b8a6"/>
  <circle cx="152" cy="184" r="20" fill="#2563eb"/>
  <circle cx="222" cy="204" r="20" fill="#f59e0b"/>
  <path d="M92 226h40m40-32 30 10" stroke="#334155" stroke-width="4" stroke-linecap="round"/>
  <rect x="52" y="62" width="176" height="13" rx="6.5" fill="#1f2937"/>
  <rect x="52" y="90" width="166" height="8" rx="4" fill="#94a3b8"/>
  <rect x="52" y="108" width="128" height="8" rx="4" fill="#cbd5e1"/>
  <text x="52" y="304" font-family="Georgia, 'Times New Roman', serif" font-size="20" font-weight="700" fill="#0f172a">Cobodied AI</text>
</svg>
