<svg xmlns="http://www.w3.org/2000/svg" width="280" height="360" viewBox="0 0 280 360" role="img" aria-labelledby="title desc">
  <title id="title">Publication cover</title>
  <desc id="desc">Abstract paper cover with data grid and signal line.</desc>
  <rect width="280" height="360" fill="#f8fafc"/>
  <rect x="24" y="28" width="232" height="304" rx="10" fill="#ffffff" stroke="#cfd8e3"/>
  <g fill="#e2e8f0">
    <rect x="52" y="142" width="32" height="32" rx="5"/>
    <rect x="96" y="142" width="32" height="32" rx="5"/>
    <rect x="140" y="142" width="32" height="32" rx="5"/>
    <rect x="184" y="142" width="32" height="32" rx="5"/>
    <rect x="52" y="186" width="32" height="32" rx="5"/>
    <rect x="96" y="186" width="32" height="32" rx="5"/>
    <rect x="140" y="186" width="32" height="32" rx="5"/>
    <rect x="184" y="186" width="32" height="32" rx="5"/>
    <rect x="52" y="230" width="32" height="32" rx="5"/>
    <rect x="96" y="230" width="32" height="32" rx="5"/>
    <rect x="140" y="230" width="32" height="32" rx="5"/>
    <rect x="184" y="230" width="32" height="32" rx="5"/>
  </g>
  <path d="M52 280c38-28 54-26 83 0 36 32 64 24 93-32" fill="none" stroke="#7c3aed" stroke-width="8" stroke-linecap="round"/>
  <rect x="52" y="66" width="160" height="13" rx="6.5" fill="#1f2937"/>
  <rect x="52" y="94" width="176" height="8" rx="4" fill="#94a3b8"/>
  <rect x="52" y="112" width="122" height="8" rx="4" fill="#cbd5e1"/>
</svg>
